<svg width="209" height="288" viewBox="0 0 209 288" fill="none" xmlns="http://www.w3.org/2000/svg">
<circle cx="120" cy="152" r="89" fill="#D25B04"/>
<g filter="url(#filter0_d_64_83)">
<path d="M31.439 214.899C26.0937 214.899 22.0143 213.422 19.201 210.468C16.3877 207.514 14.981 203.364 14.981 198.019V80.914C14.981 75.428 16.3877 71.2783 19.201 68.465C22.155 65.6517 26.3047 64.245 31.65 64.245H82.923C99.5217 64.245 112.322 68.465 121.325 76.905C130.328 85.2043 134.829 96.8093 134.829 111.72C134.829 126.631 130.328 138.306 121.325 146.746C112.322 155.186 99.5217 159.406 82.923 159.406H47.686V198.019C47.686 203.364 46.2793 207.514 43.466 210.468C40.7933 213.422 36.7843 214.899 31.439 214.899ZM47.686 134.086H77.437C85.877 134.086 92.2773 132.187 96.638 128.389C101.139 124.591 103.39 119.035 103.39 111.72C103.39 104.405 101.139 98.9193 96.638 95.262C92.2773 91.6047 85.877 89.776 77.437 89.776H47.686V134.086Z" fill="#D25B04"/>
</g>
<defs>
<filter id="filter0_d_64_83" x="1.98096" y="51.2451" width="169.848" height="200.654" filterUnits="userSpaceOnUse" color-interpolation-filters="sRGB">
<feFlood flood-opacity="0" result="BackgroundImageFix"/>
<feColorMatrix in="SourceAlpha" type="matrix" values="0 0 0 0 0 0 0 0 0 0 0 0 0 0 0 0 0 0 127 0" result="hardAlpha"/>
<feOffset dx="12" dy="12"/>
<feGaussianBlur stdDeviation="12.5"/>
<feComposite in2="hardAlpha" operator="out"/>
<feColorMatrix type="matrix" values="0 0 0 0 0 0 0 0 0 0 0 0 0 0 0 0 0 0 0.5 0"/>
<feBlend mode="normal" in2="BackgroundImageFix" result="effect1_dropShadow_64_83"/>
<feBlend mode="normal" in="SourceGraphic" in2="effect1_dropShadow_64_83" result="shape"/>
</filter>
</defs>
</svg>
