<svg width="24" height="26" viewBox="0 0 24 26" fill="none" xmlns="http://www.w3.org/2000/svg">
<g clip-path="url(#clip0_1_11)">
<path d="M15.5 15.0833H14.71L14.43 14.8021C15.41 13.6146 16 12.0729 16 10.3958C16 6.65625 13.09 3.625 9.5 3.625C5.91 3.625 3 6.65625 3 10.3958C3 14.1354 5.91 17.1667 9.5 17.1667C11.11 17.1667 12.59 16.5521 13.73 15.5312L14 15.8229V16.6458L19 21.8437L20.49 20.2917L15.5 15.0833V15.0833ZM9.5 15.0833C7.01 15.0833 5 12.9896 5 10.3958C5 7.80208 7.01 5.70833 9.5 5.70833C11.99 5.70833 14 7.80208 14 10.3958C14 12.9896 11.99 15.0833 9.5 15.0833Z" fill="#AAAAAA"/>
</g>
<defs>
<clipPath id="clip0_1_11">
<rect width="24" height="25" fill="white" transform="translate(0 0.5)"/>
</clipPath>
</defs>
</svg>
