<svg width="519" height="342" viewBox="0 0 519 342" fill="none" xmlns="http://www.w3.org/2000/svg">
<g clip-path="url(#clip0_438_79)">
<path opacity="0.1" d="M498 214.99C498.035 202.432 495.048 190.051 489.29 178.889C483.532 167.728 475.172 158.114 464.916 150.858C465.2 148.146 465.345 145.42 465.352 142.693C465.352 99.5644 430.857 64.6013 388.301 64.6013C375.197 64.5873 362.312 67.9655 350.903 74.4068C320.784 54.6044 281.462 42.6195 238.444 42.6195C168.449 42.6195 108.241 74.3546 81.5302 119.858C80.0458 119.771 78.5527 119.723 77.0465 119.723C34.4988 119.723 -0.00424015 154.687 -0.00424015 197.815C-0.0344566 213.052 4.37145 227.969 12.6765 240.748C12.6765 279.552 49.3256 311.004 94.5156 311.004H422.36C457.855 311.004 486.63 286.308 486.63 255.839C494.096 243.522 498.03 229.39 498 214.99Z" fill="#D25B04"/>
<path d="M360.693 71.4008C357.411 72.7842 354.12 74.1719 351.064 75.999C349.675 76.8256 348.343 77.7391 346.915 78.4917C345.379 79.3096 343.746 79.9273 342.127 80.5885C337.658 82.4126 333.318 84.5375 329.137 86.9486C329.498 82.2721 328.815 77.191 326.016 73.5455C325.605 73.0052 325.147 72.5016 324.649 72.0403C322.668 70.2045 319.86 69.7303 317.915 68.125C319.099 66.0456 321.728 64.1576 323.517 62.5698C325.45 60.8616 327.455 59.2418 329.533 57.7105C333.686 54.6456 338.108 51.9621 342.745 49.693C345.688 48.2531 348.761 46.9654 352.008 46.526C352.418 46.4339 352.845 46.4719 353.232 46.6348C353.737 46.9132 353.919 47.5396 354.041 48.1008C354.646 50.9067 354.955 53.7866 355.46 56.6143C355.708 58.0675 356.044 59.5043 356.466 60.9167C357.009 62.587 357.635 64.2292 358.342 65.8368C359.129 67.69 359.912 69.5447 360.693 71.4008Z" fill="#FBBEBE"/>
<path d="M267.531 150.697C267.53 156.472 265.704 162.099 262.313 166.775C258.922 171.451 254.139 174.937 248.648 176.736C243.157 178.534 237.238 178.554 231.735 176.791C226.232 175.028 221.427 171.573 218.006 166.919C214.543 162.219 212.678 156.534 212.682 150.697C212.682 143.429 215.571 136.458 220.714 131.318C225.857 126.178 232.833 123.291 240.106 123.291C247.38 123.291 254.356 126.178 259.499 131.318C264.642 136.458 267.531 143.429 267.531 150.697Z" fill="#BE6F72"/>
<path d="M230.281 174.85C231.748 177.377 233.228 179.927 234.169 182.68C235.109 185.434 235.475 188.484 234.7 191.298C244.042 186.382 255.16 186.778 265.442 184.29C265.717 184.258 265.97 184.125 266.151 183.916C266.214 183.773 266.246 183.619 266.246 183.463C266.246 183.308 266.214 183.154 266.151 183.011C263.999 175.051 263.171 166.791 263.7 158.563L258.333 161.734C255.983 163.184 253.549 164.492 251.042 165.649C247.494 167.202 243.728 168.142 240.024 169.229C237.09 170.099 231.265 171.226 229.419 173.788C229.752 174.103 230.042 174.46 230.281 174.85Z" fill="#BE6F72"/>
<path d="M215.172 137.995C213.387 138.712 211.289 139.539 209.647 138.534C208.442 137.79 207.945 136.246 208.019 134.832C208.093 133.418 208.633 132.078 209.06 130.73C209.93 127.959 210.401 125.074 211.371 122.316C212.342 119.558 213.927 116.9 216.443 115.443C221.074 112.763 227.069 114.977 232.21 113.494C234.386 112.872 236.28 111.619 238.304 110.636C240.328 109.653 242.605 108.896 244.79 109.422C247.35 110.018 249.239 112.171 251.625 113.268C254.237 114.468 257.362 114.386 259.739 115.991C261.424 117.131 262.486 118.971 263.431 120.776C266.453 126.578 268.839 132.69 270.548 139.004C271.231 141.265 271.622 143.604 271.71 145.964C271.732 148.983 270.914 151.941 270.104 154.856L268.798 159.467C268.315 161.208 267.819 162.948 266.904 164.522C265.99 166.097 264.58 167.424 262.834 167.881C260.658 168.442 258.124 167.354 257.175 165.319C256.592 164.057 256.618 162.613 256.587 161.225C256.539 158.507 256.248 155.799 255.717 153.133C255.447 151.798 255.086 150.41 254.176 149.401C253 148.096 251.129 147.661 249.387 147.63C247.35 147.604 245.117 148.157 243.928 149.806C242.975 151.137 242.81 153.007 241.543 154.047C240.98 154.479 240.311 154.751 239.606 154.834C238.169 155.013 236.713 154.706 235.472 153.96C234.23 153.215 233.275 152.075 232.758 150.723C232.358 149.575 232.162 148.148 231.074 147.609C230.508 147.326 229.833 147.378 229.228 147.195C227.373 146.634 226.886 144.285 226.716 142.358C226.52 140.1 227.273 135.641 224.466 135.489C221.44 135.324 217.953 137.068 215.172 137.995Z" fill="#3F3D56"/>
<path d="M221.749 167.702C220.783 168.168 219.725 168.712 219.346 169.712C219.198 170.104 219.172 170.534 219.037 170.935C218.423 172.705 216.029 173.053 214.793 174.463C214.235 175.175 213.86 176.013 213.7 176.903C212.874 180.414 213.142 184.093 214.466 187.448C214.85 188.511 215.442 189.487 216.208 190.319C218.419 192.573 222.233 192.529 224.988 190.994C227.744 189.458 229.646 186.765 231.261 184.033C232.117 182.658 232.833 181.201 233.398 179.683C233.895 178.14 234.249 176.554 234.456 174.946C235.423 168.677 236.685 161.725 236.25 155.369C234.944 155.287 232.449 155.195 231.296 156.013C229.851 157.04 230.251 159.111 229.729 160.612C228.492 164.222 224.905 166.128 221.749 167.702Z" fill="#3F3D56"/>
<path d="M222.881 168.533C221.248 168.633 218.323 166.828 216.686 166.919C215.572 164.977 214.588 162.962 213.739 160.89C214.61 159.641 216.012 159.337 218.132 160.89C219.834 162.086 222.184 166.223 222.881 168.533Z" fill="#3F3D56"/>
<path d="M247.49 99.7993C245.718 100.735 244.621 100.778 243.746 100.591C242.871 100.404 241.134 101.274 241.134 101.274C225.789 106.52 225.184 108.996 225.184 108.996L242.949 102.727C246.366 101.231 246.432 101.757 246.432 101.757C249.044 104.21 252.369 102.549 252.369 102.549C252.369 102.549 256.971 100.374 255.617 98.281C254.263 96.1886 249.266 98.8814 247.49 99.7993ZM254.89 99.4078C254.89 99.4078 253.584 102.888 248.887 102.322C248.887 102.322 246.58 101.983 247.555 100.265C247.555 100.265 252.343 98.2549 253.61 98.3985C254.877 98.5421 254.877 99.4252 254.877 99.4252L254.89 99.4078Z" fill="#E8E8F0"/>
<path opacity="0.1" d="M247.49 99.7993C245.718 100.735 244.621 100.778 243.746 100.591C242.871 100.404 241.134 101.274 241.134 101.274C225.789 106.52 225.184 108.996 225.184 108.996L242.949 102.727C246.366 101.231 246.432 101.757 246.432 101.757C249.044 104.21 252.369 102.549 252.369 102.549C252.369 102.549 256.971 100.374 255.617 98.281C254.263 96.1886 249.266 98.8814 247.49 99.7993ZM254.89 99.4078C254.89 99.4078 253.584 102.888 248.887 102.322C248.887 102.322 246.58 101.983 247.555 100.265C247.555 100.265 252.343 98.2549 253.61 98.3985C254.877 98.5421 254.877 99.4252 254.877 99.4252L254.89 99.4078Z" fill="black"/>
<path d="M248.465 90.0982C245.809 90.1852 245.257 92.1689 245.257 92.1689C244.725 92.8029 244.413 93.5921 244.369 94.418C244.324 95.244 244.548 96.0621 245.008 96.7497L240.294 101.435C239.401 101.779 238.633 102.386 238.091 103.175C238.091 103.175 227.739 112.311 227.892 113.142C227.892 113.142 229.581 114.012 240.294 104.254L243.106 101.766C243.106 101.766 243.729 97.1152 248.121 96.2321C248.121 96.2321 248.556 96.4235 248.787 95.3881C249.033 94.8916 249.361 94.4401 249.758 94.0526C250.341 93.5132 251.12 90.0069 248.465 90.0982ZM249.209 93.2434C249.209 93.2434 247.786 96.9151 245.757 95.8536C243.729 94.7921 245.701 92.3429 245.701 92.3429C249.218 88.9236 249.209 93.2434 249.209 93.2434Z" fill="#E8E8F0"/>
<path opacity="0.1" d="M240.385 103.262C240.695 103.262 240.947 103.011 240.947 102.701C240.947 102.391 240.695 102.14 240.385 102.14C240.075 102.14 239.824 102.391 239.824 102.701C239.824 103.011 240.075 103.262 240.385 103.262Z" fill="black"/>
<path d="M289.51 84.9562C287.872 84.0936 286.171 83.3548 284.421 82.7463C282.096 82.0874 279.707 81.679 277.295 81.5282C269.674 80.8031 262.03 80.3826 254.363 80.2666C253.009 80.2666 251.625 80.2362 250.341 80.7016C249.194 81.1415 248.154 81.8225 247.293 82.6984C245.802 84.1234 244.617 85.8376 243.811 87.736C243.552 88.2117 243.475 88.7651 243.593 89.2934C243.767 89.798 244.464 90.133 244.86 89.7763C243.847 90.5925 243.102 91.6942 242.723 92.9385C242.345 94.1828 242.349 95.5122 242.736 96.7541C242.131 97.0699 241.619 97.5361 241.248 98.1076C240.876 98.6791 240.659 99.3367 240.616 100.017C243.781 100.602 247.038 100.444 250.132 99.5557C249.209 99.3208 248.255 100.186 248.199 101.135C248.205 101.611 248.343 102.077 248.597 102.48C248.851 102.883 249.212 103.208 249.64 103.419C250.503 103.827 251.454 104.015 252.408 103.967C256.096 103.967 259.683 102.718 263.361 102.557C266.173 102.431 269.072 102.94 271.758 102.122C274.875 101.157 277.657 98.4203 280.869 98.9901C283.433 99.4469 285.105 101.826 286.777 103.819C289.449 106.999 292.753 109.574 296.031 112.128C298.556 114.094 301.194 116.113 304.324 116.778C305.261 117.033 306.254 116.986 307.162 116.643C307.921 116.238 308.558 115.637 309.008 114.903C312.382 110.118 312.386 104.093 312.19 98.4855C312.09 95.6187 311.463 95.2315 308.808 94.0439C305.726 92.6605 302.655 91.2438 299.597 89.7937C296.218 88.216 292.856 86.6035 289.51 84.9562Z" fill="#FBBEBE"/>
<path d="M324.792 95.6926C324.274 96.0025 323.725 96.2604 323.156 96.4626C322.202 96.6888 321.232 96.2843 320.304 95.9711C316.387 94.666 312.033 94.9749 308.246 93.3609C309.488 100.485 307.862 107.811 303.723 113.742C302.94 114.856 301.908 115.995 300.55 116.082C301.155 117.94 303.018 119.062 304.785 119.897C307.608 121.232 310.56 122.273 313.596 123.004C314.467 123.208 315.529 123.308 316.034 122.569C316.339 122.134 316.469 121.39 317.005 121.416C317.823 122.286 317.553 124.069 318.685 124.461C319.038 124.551 319.407 124.551 319.76 124.461L322.285 124.026C323.043 123.96 323.772 123.709 324.409 123.295C324.809 122.949 325.138 122.529 325.38 122.06C328.21 117.244 329.298 111.671 329.733 106.168C329.947 103.436 330.212 100.539 330.025 97.7982C329.851 95.449 326.838 94.7399 324.792 95.6926Z" fill="#E8E8F0"/>
<path opacity="0.1" d="M324.792 95.6926C324.274 96.0025 323.725 96.2604 323.156 96.4626C322.202 96.6888 321.232 96.2843 320.304 95.9711C316.387 94.666 312.033 94.9749 308.246 93.3609C309.488 100.485 307.862 107.811 303.723 113.742C302.94 114.856 301.908 115.995 300.55 116.082C301.155 117.94 303.018 119.062 304.785 119.897C307.608 121.232 310.56 122.273 313.596 123.004C314.467 123.208 315.529 123.308 316.034 122.569C316.339 122.134 316.469 121.39 317.005 121.416C317.823 122.286 317.553 124.069 318.685 124.461C319.038 124.551 319.407 124.551 319.76 124.461L322.285 124.026C323.043 123.96 323.772 123.709 324.409 123.295C324.809 122.949 325.138 122.529 325.38 122.06C328.21 117.244 329.298 111.671 329.733 106.168C329.947 103.436 330.212 100.539 330.025 97.7982C329.851 95.449 326.838 94.7399 324.792 95.6926Z" fill="black"/>
<path d="M178.862 236.802C177.622 235.21 176.346 233.522 174.509 232.682C173.451 232.256 172.337 231.983 171.201 231.873C165.076 231.003 158.938 230.098 152.756 229.929C150.737 229.872 148.569 229.929 146.923 231.107C145.038 232.452 144.311 234.927 144.207 237.237C144.094 239.988 144.641 242.725 145.801 245.222C146.961 247.719 148.701 249.903 150.876 251.593C154.576 254.412 159.251 255.591 163.813 256.522C166.212 257.013 168.624 257.453 171.044 257.827C173.464 258.201 175.928 258.497 178.266 259.245C183.263 260.846 187.673 264.465 192.914 264.765C193.16 264.803 193.412 264.761 193.632 264.644C193.862 264.458 194.017 264.195 194.068 263.904C195.221 259.837 199.222 250.096 194.068 247.251C191.373 245.768 188.383 245.703 185.745 243.819C183.107 241.935 180.865 239.373 178.862 236.802Z" fill="#BE6F72"/>
<path d="M134.856 263.804C131.465 260.855 126.785 259.293 124.322 255.539C123.238 253.885 122.689 251.945 122.145 250.04L120.543 244.289C120.42 243.935 120.364 243.562 120.378 243.188C120.5 241.987 121.914 241.418 123.107 241.231C129.201 240.282 135.548 242.736 140.11 246.886C144.673 251.036 147.602 256.761 149.322 262.695C149.443 262.997 149.461 263.33 149.374 263.643C149.225 263.922 148.99 264.144 148.704 264.278C146.501 265.583 143.541 267.484 140.968 267.885C138.395 268.285 136.689 265.379 134.856 263.804Z" fill="#BE6F72"/>
<path d="M283.638 239.008L301.486 246.146C303.179 246.823 304.573 248.085 305.413 249.703C306.253 251.321 306.483 253.187 306.061 254.96L292.78 310.787H259.574L265.355 247.273C265.355 247.273 277.979 236.832 283.638 239.008Z" fill="#3F3D56"/>
<path d="M300.876 232.308C300.545 233.03 300.058 233.744 300.132 234.531C300.175 235.001 300.419 235.445 300.384 235.91C300.315 236.824 299.257 237.333 298.343 237.341C297.429 237.35 296.51 237.054 295.609 237.211C294.129 237.463 293.128 238.825 291.848 239.612C290.063 240.709 287.834 240.643 285.753 240.83C281.4 241.222 277.282 242.853 273.343 244.711C270.665 245.972 267.823 247.591 266.813 250.366C265.363 254.281 268.175 258.405 268.798 262.547C268.965 263.941 269.006 265.348 268.92 266.749C268.463 281.375 267.675 296.17 266.839 310.778L107.27 310.965L115.127 297.205C122.789 283.785 130.655 270.112 142.213 259.85C143.927 258.303 145.853 257.008 147.933 256.004L157.201 264.27C157.943 265.007 158.803 265.614 159.747 266.066C161.488 266.775 163.439 266.371 165.306 266.432C168.898 266.549 172.18 268.381 175.297 270.168C177.583 271.408 179.782 272.802 181.879 274.34C183.106 275.28 184.878 275.867 186.158 276.733L185.857 261.116C185.827 259.706 185.805 258.262 186.227 256.918C187.046 254.307 189.383 252.463 190.507 249.979C191.016 248.861 191.264 247.643 191.691 246.499C192.294 245.028 193.043 243.622 193.928 242.301L199.705 233.026C201.133 230.738 202.556 228.449 204.106 226.244C210.884 216.582 220.008 208.843 228.884 201.078C228.678 198.865 229.189 196.644 230.342 194.744C230.797 194.111 231.174 193.426 231.465 192.703C231.653 191.847 231.708 190.966 231.626 190.093C231.626 189.871 231.626 189.658 231.626 189.423C231.723 188.001 232.318 186.658 233.307 185.63C234.325 184.573 235.688 183.929 237.029 183.329C243.967 180.228 251.181 177.784 258.577 176.029C259.756 175.75 261.006 175.489 262.168 175.842C262.521 176.977 263.722 177.377 264.924 177.665L265.694 177.843C267.735 178.283 269.638 179.212 271.24 180.549C272.925 182.019 274.083 183.985 275.21 185.921C283.686 200.464 287.59 219.545 300.702 230.111C301.338 230.612 301.207 231.612 300.876 232.308Z" fill="#D25B04"/>
<path opacity="0.1" d="M354.346 53.6865C349.758 63.7661 340.716 73.6977 328.911 73.6977C327.947 73.6983 326.984 73.6504 326.025 73.5542C325.613 73.0139 325.156 72.5103 324.658 72.049C322.677 70.2132 319.869 69.739 317.923 68.1338C319.107 66.0543 321.737 64.1663 323.526 62.5785C325.459 60.8703 327.464 59.2505 329.542 57.7192C333.695 54.6543 338.117 51.9708 342.754 49.7017C345.696 48.2618 348.77 46.9741 352.017 46.5347C352.426 46.4426 352.854 46.4807 353.24 46.6435C353.745 46.9219 353.928 47.5483 354.05 48.1095C354.655 50.8937 353.841 50.8589 354.346 53.6865Z" fill="black"/>
<path d="M328.911 72.8233C345.019 72.8233 358.077 59.7739 358.077 43.6766C358.077 27.5793 345.019 14.5299 328.911 14.5299C312.803 14.5299 299.745 27.5793 299.745 43.6766C299.745 59.7739 312.803 72.8233 328.911 72.8233Z" fill="#FBBEBE"/>
<path d="M389.65 140.613C389.175 144.137 388.347 147.605 387.177 150.963C386.742 152.185 386.207 153.377 385.654 154.552C382.411 161.421 380.63 168.847 379.781 176.399C379.716 176.993 379.607 177.582 379.455 178.16C378.815 180.597 377.466 182.772 376.434 185.064C375.382 187.541 374.509 190.089 373.822 192.69C373.574 193.343 373.49 194.047 373.578 194.739C373.739 195.475 374.27 196.044 374.645 196.71C376.578 200.038 374.344 204.105 373.591 207.873C373.334 209.178 373.221 210.596 372.372 211.614C371.65 212.484 370.527 212.884 369.46 213.25C354.258 218.414 338.7 222.462 322.908 225.361C320.553 225.796 318.119 226.2 315.781 225.765C313.444 225.33 311.115 223.886 310.314 221.633C309.852 220.328 309.931 218.909 309.97 217.526C310.057 214.62 309.97 211.697 309.813 208.769C309.308 199.133 308.163 189.462 310.684 180.231C311.437 177.508 312.499 174.88 313.352 172.188C315.02 166.937 315.451 161.508 315.869 156.061C316.212 151.572 316.548 147.065 317.553 142.636C318.302 139.334 317.806 135.902 317.762 132.518C317.676 124.772 319.954 117.185 324.292 110.766C325.045 109.657 325.872 108.561 326.268 107.286C326.825 105.459 326.442 103.497 326.19 101.6C325.554 96.7644 325.811 91.853 326.947 87.1096C327.304 85.3347 327.985 83.6405 328.954 82.1111C330.038 80.532 331.592 79.34 333.146 78.2177C342.168 71.7175 352.124 66.6207 362.674 63.1005C363.644 65.554 364.576 68.4209 365.32 70.931C365.42 71.2703 365.49 71.701 365.211 71.9185C364.933 72.136 364.646 72.0185 364.341 72.0272C364.026 72.0613 363.73 72.1896 363.49 72.3954C363.249 72.6012 363.077 72.8747 362.996 73.18C362.843 73.7961 362.902 74.4454 363.161 75.0245C363.753 76.5471 365.029 77.6826 366.256 78.7571L372.429 84.1383C373.168 84.8293 373.974 85.4443 374.836 85.9742C375.611 86.4092 376.456 86.7181 377.252 87.1183C380.447 88.7322 382.655 91.8775 383.886 95.2359C385.118 98.5943 384.561 102.631 386.168 105.82C391.504 116.391 391.461 128.898 389.65 140.613Z" fill="#E8E8F0"/>
<path d="M385.593 251.223C387.469 258.778 387.422 266.682 385.458 274.214C385.106 275.558 384.692 276.95 384.971 278.312C385.132 279.086 385.51 279.813 385.597 280.6C385.636 281.319 385.558 282.038 385.367 282.732C383.434 291.868 384.126 301.36 384.905 310.682C384.575 310.682 384.47 310.835 384.122 310.835H375.733C375.585 308.385 372.538 306.55 371.049 304.596C369.609 302.682 368.613 300.471 368.133 298.124C367.654 295.778 367.703 293.354 368.276 291.028C369.582 285.808 373.43 281.636 375.402 276.646C377.579 271.156 377.392 264.939 379.703 259.51C381.031 256.374 383.512 253.925 385.593 251.223Z" fill="#3F3D56"/>
<path opacity="0.1" d="M385.593 251.223C387.469 258.778 387.422 266.682 385.458 274.214C385.106 275.558 384.692 276.95 384.971 278.312C385.132 279.086 385.51 279.813 385.597 280.6C385.636 281.319 385.558 282.038 385.367 282.732C383.434 291.868 384.126 301.36 384.905 310.682C384.575 310.682 384.47 310.835 384.122 310.835H375.733C375.585 308.385 372.538 306.55 371.049 304.596C369.609 302.682 368.613 300.471 368.133 298.124C367.654 295.778 367.703 293.354 368.276 291.028C369.582 285.808 373.43 281.636 375.402 276.646C377.579 271.156 377.392 264.939 379.703 259.51C381.031 256.374 383.512 253.925 385.593 251.223Z" fill="black"/>
<path d="M367.989 209.352C360.859 208.212 353.95 211.801 347.063 213.981C336.542 217.308 324.958 217.513 315.238 222.738C314.369 223.155 313.582 223.724 312.913 224.417C312.124 225.393 311.627 226.572 311.481 227.819C311.046 230.574 311.58 233.395 312.991 235.801C313.596 236.828 314.358 237.772 314.828 238.873C315.943 241.483 315.198 244.493 315.007 247.347C314.571 253.72 317.044 259.924 317.54 266.292C317.836 270.047 317.449 273.884 318.333 277.547C318.885 279.843 319.926 282.01 320.357 284.333C320.788 286.656 320.601 288.927 320.744 291.224C321.149 297.806 324.148 304.201 323.417 310.756L380.008 310.943C377.91 303.648 376.164 296.105 378.066 288.757C378.727 286.434 379.547 284.159 380.522 281.949C383.686 274.306 386.938 266.64 388.684 258.558C390.429 250.475 390.586 241.844 387.63 234.118C384.339 225.504 377.344 218.34 375.82 209.247C373.208 208.899 370.605 209.769 367.989 209.352Z" fill="#3F3D56"/>
<path d="M308.599 29.4599C308.051 28.3115 306.497 27.5545 305.452 28.281C304.407 29.0075 304.542 30.6302 304.285 31.9352C303.789 34.5019 301.238 36.2507 298.626 36.6596C297.403 36.8554 296.04 36.7771 295.091 35.9853C294.48 35.4003 294.03 34.6676 293.785 33.8581C291.174 26.8976 292.762 18.7714 297.037 12.6984C297.944 11.3376 299.069 10.1353 300.367 9.13989C303.967 6.52974 308.782 6.52974 313.235 6.66894C314.14 6.76693 315.054 6.66139 315.912 6.36008C316.566 6.01611 317.165 5.5762 317.689 5.055C321.907 1.34858 327.736 -0.208814 333.36 0.0391508C338.984 0.287116 344.395 2.21428 349.392 4.77658C351.782 5.999 354.124 7.38674 355.996 9.31825C360.493 13.9426 361.59 20.7942 362.474 27.1804C363.423 34.0712 364.367 41.1534 362.77 47.9268C361.864 51.7637 360.158 55.5136 360.358 59.4506C356.742 60.4826 353.067 61.2946 349.353 61.8824C347.612 62.1565 345.601 62.3174 344.325 61.0863C343.786 60.5085 343.392 59.8106 343.176 59.0504C341.796 54.9742 342.258 50.3194 340.173 46.5521C339.301 45.0161 338.055 43.725 336.55 42.7987C335.046 41.8724 333.331 41.3409 331.566 41.2535C330.199 41.2056 328.645 41.5406 327.945 42.7108C327.676 43.2848 327.469 43.8856 327.326 44.5031C326.36 47.4135 322.403 48.8534 319.795 47.2308C318.49 46.4129 317.597 45.0556 316.417 44.0377C314.92 42.7543 313 42.0931 311.32 41.0577C305.722 37.5906 310.767 34.006 308.599 29.4599Z" fill="#3F3D56"/>
<path d="M264.941 177.669C262.56 178.43 260.392 179.809 258.076 180.779C253.998 182.48 249.514 182.876 245.235 183.964C241.124 185.066 237.161 186.661 233.433 188.714C233.159 188.862 232.297 189.584 231.609 190.08C231.609 189.858 231.609 189.645 231.609 189.41C231.706 187.988 232.301 186.645 233.29 185.617C234.308 184.56 235.671 183.916 237.012 183.316C243.956 180.218 251.176 177.778 258.577 176.029C259.757 175.75 261.006 175.489 262.168 175.842C262.538 176.977 263.74 177.377 264.941 177.669Z" fill="#3F3D56"/>
<path opacity="0.1" d="M203.227 289.231C207.911 294.452 212.111 300.15 217.562 304.553C211.271 296.205 202.247 290.632 194.089 284.337C192.435 283.058 189.127 281.244 188.126 279.395C186.545 276.498 190.037 278.556 191.486 279.343C196.013 281.801 199.809 285.429 203.227 289.231Z" fill="black"/>
<path opacity="0.1" d="M371.759 136.85C371.537 138.73 370.836 140.513 370.127 142.262C368.385 146.612 366.518 150.919 363.888 154.778C362.078 157.436 359.923 159.837 358.034 162.434C356.094 165.191 354.315 168.057 352.705 171.017C349.736 176.272 346.843 181.571 344.025 186.913C342.68 189.471 341.344 192.051 339.607 194.361C338.388 195.92 337.08 197.407 335.689 198.816C332.642 202.026 329.512 204.993 326.787 208.473C325.437 210.213 323.187 210.883 321.084 211.475C320.381 211.709 319.648 211.84 318.907 211.866C318.162 211.814 317.428 211.652 316.731 211.383C314.383 210.667 312.085 209.795 309.853 208.773C309.348 199.137 308.203 189.467 310.724 180.236C311.477 177.512 312.539 174.885 313.392 172.192C315.059 166.941 315.49 161.512 315.908 156.066C316.426 154.974 316.979 153.89 317.514 152.838C321.145 145.668 324.205 137.773 323.261 129.781C323.02 128.341 322.853 126.889 322.76 125.431C322.769 123.644 323.07 121.87 323.652 120.18C324.955 116.189 327.109 112.527 329.965 109.448C332.82 106.369 336.311 103.945 340.194 102.344C341.421 101.771 342.758 101.474 344.112 101.474C345.853 101.565 347.521 102.47 349.218 102.14C354.969 104.667 359.622 108.983 363.101 114.212C366.579 119.441 366.77 126.427 370.553 131.439C371.672 132.961 371.977 134.975 371.759 136.85Z" fill="black"/>
<path d="M245.892 113.242L245.709 112.846L238.596 116.126L237.408 116.674L236.224 117.218L246.253 138.947L247.437 138.399L248.626 137.851L255.739 134.571L255.556 134.179L248.443 137.459L248.26 137.064L255.373 133.784L255.19 133.388L248.077 136.668L247.894 136.272L255.007 132.992L254.829 132.596L247.712 135.876L247.529 135.484L254.646 132.204L254.463 131.808L247.346 135.089L247.163 134.693L254.28 131.413L254.098 131.017L246.985 134.297L246.802 133.901L253.915 130.621L253.732 130.229L246.619 133.509L246.436 133.114L253.549 129.833L253.366 129.438L246.253 132.718L246.07 132.322L253.188 129.042L253.005 128.646L245.888 131.926L245.705 131.534L252.822 128.25L252.639 127.858L245.522 131.139L245.343 130.743L252.457 127.463L252.274 127.067L245.161 130.347L244.978 129.951L252.091 126.671L251.908 126.275L244.795 129.555L244.612 129.164L251.725 125.883L251.547 125.488L244.429 128.768L244.246 128.372L251.364 125.092L251.181 124.696L244.064 127.976L243.885 127.58L250.998 124.304L250.815 123.908L243.702 127.189L243.519 126.793L250.633 123.513L250.45 123.117L243.337 126.397L243.154 126.001L250.267 122.721L250.088 122.325L242.971 125.609L242.788 125.213L249.906 121.933L249.723 121.538L242.605 124.818L242.423 124.422L249.54 121.142L249.357 120.746L242.244 124.026L242.061 123.63L249.174 120.35L248.991 119.958L241.878 123.238L241.696 122.843L248.809 119.563L248.626 119.167L241.513 122.447L241.33 122.051L248.447 118.771L248.264 118.379L241.147 121.655L240.964 121.263L248.082 117.983L247.899 117.587L240.781 120.868L240.603 120.472L247.716 117.192L247.533 116.796L240.42 120.076L240.237 119.68L247.35 116.4L247.167 116.008L240.054 119.288L239.872 118.893L246.985 115.612L246.806 115.217L239.689 118.497L239.506 118.101L246.623 114.821L246.44 114.425L239.323 117.705L239.14 117.313L246.258 114.033L246.075 113.637L238.957 116.918L238.779 116.522L245.892 113.242Z" fill="black"/>
<path opacity="0.1" d="M268.224 161.034C267.305 162.587 265.899 163.935 264.153 164.392C261.977 164.953 259.443 163.866 258.494 161.83C257.911 160.568 257.937 159.124 257.907 157.736C257.859 155.018 257.567 152.31 257.036 149.645C256.766 148.309 256.405 146.921 255.495 145.912C254.32 144.607 252.448 144.172 250.707 144.141C248.669 144.115 246.436 144.668 245.248 146.317C244.294 147.648 244.129 149.518 242.862 150.558C242.299 150.99 241.63 151.262 240.925 151.345C239.488 151.524 238.032 151.217 236.791 150.471C235.55 149.726 234.594 148.586 234.077 147.235C233.677 146.086 233.481 144.659 232.393 144.12C231.827 143.837 231.152 143.889 230.547 143.706C228.693 143.145 228.205 140.796 228.035 138.869C227.839 136.611 228.593 132.152 225.785 132C222.781 131.835 219.294 133.579 216.513 134.506C214.728 135.223 212.63 136.05 210.988 135.045C209.783 134.301 209.286 132.757 209.36 131.343C209.434 129.929 209.974 128.589 210.401 127.241C211.132 124.961 211.572 122.595 212.242 120.28C211.927 120.935 211.646 121.606 211.402 122.29C210.436 125.035 209.983 127.945 209.095 130.704C208.659 132.052 208.128 133.392 208.054 134.806C207.98 136.22 208.49 137.764 209.682 138.508C211.324 139.513 213.422 138.686 215.207 137.968C217.988 137.042 221.475 135.297 224.479 135.463C227.287 135.615 226.533 140.074 226.729 142.332C226.899 144.259 227.387 146.608 229.241 147.169C229.846 147.352 230.521 147.3 231.087 147.583C232.175 148.122 232.393 149.549 232.772 150.697C233.288 152.049 234.244 153.189 235.485 153.934C236.726 154.68 238.182 154.987 239.619 154.808C240.324 154.725 240.993 154.453 241.556 154.021C242.823 152.981 242.988 151.111 243.942 149.779C245.13 148.122 247.363 147.569 249.401 147.604C251.142 147.63 253.035 148.065 254.189 149.375C255.099 150.384 255.46 151.772 255.73 153.107C256.261 155.773 256.553 158.481 256.601 161.199C256.631 162.587 256.601 164.031 257.188 165.292C258.133 167.328 260.671 168.416 262.847 167.855C264.589 167.398 265.999 166.049 266.918 164.496C267.617 163.228 268.155 161.878 268.52 160.477C268.424 160.677 268.328 160.855 268.224 161.034Z" fill="black"/>
<path d="M290.616 158.145C287.133 154.804 283.986 151.106 280.861 147.417C277.866 143.889 274.862 140.344 272.45 136.398C270.957 133.958 269.625 131.295 267.331 129.586C265.59 128.28 263.461 127.671 261.537 126.675C260.153 125.957 258.877 125.048 257.51 124.304C254.529 122.694 251.173 121.903 247.785 122.012C246.379 122.06 244.782 122.386 244.059 123.595C243.811 124.008 243.693 124.491 243.441 124.9C242.662 126.205 240.785 126.575 240.146 127.945C239.066 130.251 242.322 132.37 242.527 134.906C242.622 136.176 241.922 137.359 241.717 138.617C241.369 140.792 242.496 142.867 243.585 144.764C245.913 148.827 248.747 153.277 253.323 154.299C254.942 154.66 256.653 154.543 258.233 155.056C259.506 155.539 260.685 156.241 261.715 157.131C266.014 160.517 269.802 164.504 272.964 168.968C274.435 171.043 275.767 173.21 277.252 175.272C281.976 181.805 288.176 187.131 295.348 190.82L300.689 173.854C301.512 171.244 302.16 167.663 299.818 165.627C296.884 162.987 293.502 160.903 290.616 158.145Z" fill="#FBBEBE"/>
<path d="M348.761 99.982C347.063 100.308 345.379 99.4078 343.655 99.3164C342.301 99.3158 340.963 99.6129 339.737 100.186C335.854 101.788 332.364 104.212 329.509 107.292C326.653 110.371 324.499 114.032 323.195 118.023C322.619 119.719 322.322 121.499 322.316 123.291C322.342 124.748 322.647 126.184 322.816 127.641C323.761 135.619 320.701 143.519 317.075 150.697C315.068 154.66 312.804 158.841 313.279 163.257C313.34 163.848 313.435 164.514 313.074 164.997C312.639 165.571 311.698 165.601 311.294 166.206C310.889 166.811 311.259 167.724 310.937 168.407C310.501 169.373 309.082 169.256 308.068 168.912C305.288 167.972 302.712 166.51 300.48 164.605C296.863 166.715 292.993 169.229 291.805 173.24C291.525 174.264 291.332 175.308 291.226 176.364L289.358 191.938C289.11 194 288.988 196.419 290.546 197.793C293.232 200.168 298.016 197.093 300.89 199.242C301.625 199.79 302.104 200.608 302.631 201.352C305.769 205.654 311.172 207.546 316.239 209.182C316.937 209.447 317.67 209.608 318.415 209.661C319.156 209.64 319.89 209.508 320.592 209.269C322.699 208.678 324.945 207.99 326.294 206.272C329.024 202.792 332.154 199.825 335.201 196.614C336.59 195.204 337.898 193.717 339.119 192.16C340.86 189.845 342.192 187.266 343.537 184.708C346.349 179.366 349.24 174.067 352.209 168.812C353.835 165.863 355.63 163.01 357.585 160.268C359.479 157.658 361.629 155.265 363.44 152.611C366.052 148.748 367.928 144.424 369.678 140.096C370.388 138.356 371.088 136.559 371.315 134.684C371.541 132.809 371.236 130.795 370.096 129.285C366.313 124.269 366.126 117.287 362.648 112.058C359.169 106.829 354.516 102.505 348.761 99.982Z" fill="#E8E8F0"/>
<path d="M246.009 115.025C245.908 115.09 245.822 115.176 245.757 115.277C245.692 115.379 245.651 115.493 245.635 115.612C245.635 115.83 245.813 116 245.909 116.195C246.175 116.752 245.748 117.396 245.261 117.779C244.773 118.162 244.181 118.458 243.915 119.019C243.875 119.093 243.856 119.178 243.863 119.262C243.893 119.377 243.96 119.478 244.055 119.549C244.341 119.879 244.713 120.123 245.13 120.254C245.796 120.393 246.436 119.954 247.002 119.593C247.616 119.205 248.27 118.884 248.952 118.636C249.163 118.573 249.362 118.475 249.54 118.344C249.757 118.128 249.891 117.841 249.918 117.535C250.066 116.443 249.483 115.395 248.817 114.49C248.016 113.424 246.693 114.438 246.009 115.025Z" fill="#3F3D56"/>
<path d="M179.223 243.946L134.037 220.898C133.707 220.73 133.303 220.861 133.135 221.19L121.619 243.737C121.451 244.067 121.582 244.47 121.912 244.638L167.098 267.686C167.428 267.855 167.831 267.724 168 267.394L179.515 244.847C179.684 244.518 179.553 244.114 179.223 243.946Z" fill="#3F3D56"/>
<path d="M175.063 244.525L136.081 224.642L126.19 244.008L165.172 263.891L175.063 244.525Z" fill="#E8E8F0"/>
<path d="M130.277 233.894C130.397 233.661 130.207 233.326 129.853 233.146C129.5 232.965 129.117 233.008 128.998 233.242C128.879 233.475 129.069 233.81 129.422 233.99C129.775 234.17 130.158 234.127 130.277 233.894Z" fill="#E6E8EC"/>
<path d="M172.907 255.695C173.103 255.312 172.789 254.76 172.207 254.463C171.624 254.166 170.994 254.236 170.798 254.619C170.602 255.002 170.916 255.553 171.498 255.85C172.081 256.147 172.712 256.078 172.907 255.695Z" fill="#E6E8EC"/>
<g opacity="0.1">
<path d="M362.761 44.8642C361.855 48.7012 360.149 52.4511 360.349 56.3881C356.733 57.42 353.058 58.2321 349.344 58.8199C347.603 59.0939 345.592 59.2549 344.317 58.0238C343.777 57.4459 343.383 56.748 343.167 55.9878C341.787 51.9116 342.249 47.2569 340.164 43.4895C339.292 41.9535 338.046 40.6624 336.541 39.7361C335.037 38.8098 333.322 38.2783 331.557 38.1909C330.191 38.1431 328.637 38.478 327.936 39.6483C327.667 40.2223 327.46 40.823 327.317 41.4406C326.351 44.3509 322.394 45.7908 319.787 44.1682C318.481 43.3503 317.588 41.9931 316.409 40.9751C314.911 39.6918 312.991 39.0305 311.311 37.9952C309.796 37.0642 309.069 36.1245 308.76 35.1544C308.377 37.2469 308.268 39.1697 311.311 41.0403C312.991 42.0757 314.911 42.7369 316.409 44.0203C317.588 45.0295 318.463 46.3955 319.787 47.2134C322.398 48.8273 326.351 47.3961 327.317 44.4858C327.46 43.8682 327.667 43.2674 327.936 42.6934C328.637 41.5232 330.191 41.1883 331.557 41.2361C333.322 41.3235 335.037 41.855 336.541 42.7813C338.046 43.7076 339.292 44.9987 340.164 46.5347C342.249 50.302 341.787 54.9568 343.167 59.033C343.386 59.7995 343.786 60.5022 344.334 61.082C345.609 62.3001 347.625 62.1522 349.362 61.8781C353.076 61.2903 356.751 60.4782 360.367 59.4463C360.153 55.5093 361.873 51.7594 362.778 47.9225C363.476 44.7827 363.755 41.5647 363.61 38.3519C363.54 40.5452 363.256 42.7264 362.761 44.8642Z" fill="black"/>
<path d="M309.021 30.678C309.34 29.2472 309.187 27.7518 308.586 26.4148C308.038 25.2663 306.484 24.5094 305.439 25.2359C304.394 25.9624 304.542 27.585 304.285 28.8901C303.789 31.4567 301.238 33.2055 298.626 33.6145C297.403 33.8102 296.04 33.7319 295.091 32.9402C294.48 32.3551 294.03 31.6224 293.785 30.8129C293.117 29.0036 292.711 27.1079 292.58 25.1837C292.359 28.1279 292.77 31.0854 293.785 33.8581C294.03 34.6676 294.48 35.4003 295.091 35.9853C296.04 36.7771 297.403 36.8554 298.626 36.6596C301.208 36.2507 303.772 34.4845 304.285 31.9353C304.533 30.6302 304.364 29.051 305.443 28.3028C306.523 27.5545 308.055 28.3332 308.59 29.4817C308.777 29.8637 308.921 30.2649 309.021 30.678Z" fill="black"/>
</g>
</g>
<circle cx="463" cy="286" r="56" fill="#D25B04" fill-opacity="0.42"/>
<circle cx="463" cy="286" r="45" fill="#D25B04"/>
<rect x="433.061" y="277.297" width="46.1626" height="14.2282" rx="7.1141" transform="rotate(45 433.061 277.297)" fill="white"/>
<rect x="446.082" y="309.939" width="67.7962" height="14.2282" rx="7.1141" transform="rotate(-45 446.082 309.939)" fill="white"/>
<defs>
<clipPath id="clip0_438_79">
<rect width="498" height="311" fill="white"/>
</clipPath>
</defs>
</svg>
